<svg width="594" height="76" viewBox="0 0 594 76" fill="none" xmlns="http://www.w3.org/2000/svg">
<path d="M174.673 28.1605C174.673 33.5635 171.565 37.4005 164.649 37.4005H154.858V19.1553H164.649C171.565 19.1553 174.673 22.6791 174.673 28.1605ZM146 11.8729V66.2953H154.858V44.5263H161.619L174.052 66.2953H184.62L171.254 43.7433C180.346 41.4724 183.765 34.5815 183.765 28.1605C183.765 19.3119 177.471 11.8729 164.649 11.8729H146Z" fill="#080527"/>
<path d="M192.145 44.5263C192.145 57.8383 201.081 67 212.193 67C219.342 67 224.47 63.5546 227.19 59.8742V66.2953H236.126V23.1489H227.19V29.4134C224.548 25.8896 219.575 22.4442 212.348 22.4442C201.081 22.4442 192.145 31.2144 192.145 44.5263ZM227.19 44.6829C227.19 54.0013 220.896 59.2478 214.213 59.2478C207.608 59.2478 201.236 53.8447 201.236 44.5263C201.236 35.208 207.608 30.1964 214.213 30.1964C220.896 30.1964 227.19 35.4429 227.19 44.6829Z" fill="#080527"/>
<path d="M247.761 66.2953H256.62V23.1489H247.761V66.2953ZM252.268 17.4326C255.377 17.4326 257.863 14.9268 257.863 11.7163C257.863 8.50578 255.377 6 252.268 6C249.082 6 246.596 8.50578 246.596 11.7163C246.596 14.9268 249.082 17.4326 252.268 17.4326Z" fill="#080527"/>
<path d="M298.633 66.2953H307.414V40.846C307.414 28.7869 299.876 22.4442 289.852 22.4442C284.724 22.4442 279.984 24.5584 277.109 28.0822V23.1489H268.25V66.2953H277.109V42.1772C277.109 34.2683 281.382 30.1964 287.91 30.1964C294.359 30.1964 298.633 34.2683 298.633 42.1772V66.2953Z" fill="#080527"/>
<path d="M350.651 54.2362C350.184 38.6534 326.018 43.5083 326.018 34.8164C326.018 31.9191 328.504 29.9615 333.244 29.9615C338.062 29.9615 340.937 32.5456 341.248 36.3042H350.107C349.64 27.6906 343.269 22.4442 333.555 22.4442C323.454 22.4442 317.082 28.0039 317.082 34.8947C317.082 50.7125 341.948 45.8575 341.948 54.3145C341.948 57.2901 339.228 59.4827 334.099 59.4827C329.204 59.4827 325.862 56.5854 325.552 53.0616H316.382C316.771 60.8922 323.997 67 334.255 67C344.356 67 350.651 61.5186 350.651 54.2362Z" fill="#080527"/>
<path d="M360.222 66.2953H369.081V42.1772C369.081 34.2683 373.355 30.1964 379.882 30.1964C386.332 30.1964 390.605 34.2683 390.605 42.1772V66.2953H399.386V40.846C399.386 28.7869 391.926 22.4442 382.369 22.4442C376.851 22.4442 372.034 24.5584 369.081 28.1605V8.34917H360.222V66.2953Z" fill="#080527"/>
<path d="M451.481 44.6829C451.481 31.1361 441.846 22.4442 429.646 22.4442C417.446 22.4442 407.811 31.1361 407.811 44.6829C407.811 58.2298 417.058 67 429.257 67C441.535 67 451.481 58.2298 451.481 44.6829ZM416.824 44.6829C416.824 34.8947 422.808 30.1964 429.491 30.1964C436.096 30.1964 442.39 34.8947 442.39 44.6829C442.39 54.4711 435.862 59.2478 429.257 59.2478C422.575 59.2478 416.824 54.4711 416.824 44.6829Z" fill="#080527"/>
<path d="M468.553 66.2953H477.878L486.503 34.4249L495.128 66.2953H504.453L517.741 23.1489H509.038L500.179 57.6816L491.476 23.1489H482.229L473.138 57.8383L464.201 23.1489H455.188L468.553 66.2953Z" fill="#080527"/>
<path d="M542.389 29.9615C548.994 29.9615 554.2 34.19 554.355 40.846H530.655C531.588 34.0334 536.405 29.9615 542.389 29.9615ZM562.437 53.4531H552.879C551.247 56.8203 548.217 59.4827 542.777 59.4827C536.25 59.4827 531.199 55.1759 530.577 48.0501H563.292C563.525 46.5623 563.602 45.1528 563.602 43.665C563.602 30.9795 554.977 22.4442 542.777 22.4442C530.111 22.4442 521.408 31.1361 521.408 44.6829C521.408 58.2298 530.5 67 542.777 67C553.268 67 560.028 60.9705 562.437 53.4531Z" fill="#080527"/>
<path d="M581.179 43.5867C581.179 34.4249 585.219 31.6842 591.747 31.6842H594V22.4442C587.939 22.4442 583.665 25.1065 581.179 29.4134V23.1489H572.32V66.2953H581.179V43.5867Z" fill="#080527"/>
<path fill-rule="evenodd" clip-rule="evenodd" d="M17.9319 27.206C20.0636 11.8374 33.3008 0 49.3083 0C60.8428 0 70.9223 6.14403 76.4585 15.3126C78.152 14.938 79.9141 14.7377 81.7217 14.7377C95.1292 14.7377 106 25.5709 106 38.932C106 49.4666 99.2467 58.4282 89.8221 61.7493C87.5434 62.5523 85.0431 61.3624 84.2373 59.0917C83.4316 56.8209 84.6256 54.3292 86.9042 53.5263C92.9369 51.4004 97.2477 45.6609 97.2477 38.932C97.2477 30.3879 90.2955 23.4597 81.7217 23.4597C79.6648 23.4597 77.6986 23.8646 75.8991 24.5865C73.7125 25.4637 71.2216 24.4574 70.2652 22.3105C66.6945 14.295 58.6519 8.72203 49.3083 8.72203C36.6498 8.72203 26.3843 18.9521 26.3843 31.5668C26.3843 31.6703 26.3881 31.7872 26.396 31.9984C26.4484 33.4102 25.8114 34.7598 24.6867 35.6198C23.562 36.4797 22.0889 36.7435 20.7341 36.3275C19.8915 36.0687 18.9816 35.9278 18.0262 35.9278C12.9054 35.9278 8.75229 40.0666 8.75229 45.1697C8.75229 48.9534 11.0364 52.2151 14.3166 53.6402C16.5321 54.6027 17.545 57.1728 16.5791 59.3807C15.6133 61.5885 13.0342 62.598 10.8188 61.6354C4.4601 58.8728 0 52.5436 0 45.1697C0 35.2809 8.02073 27.2567 17.9319 27.206Z" fill="#235AE6"/>
<path fill-rule="evenodd" clip-rule="evenodd" d="M69.5 44C71.9853 44 74 45.955 74 48.3665V71.6335C74 74.045 71.9853 76 69.5 76C67.0147 76 65 74.045 65 71.6335V48.3665C65 45.955 67.0147 44 69.5 44Z" fill="#235AE6"/>
<path fill-rule="evenodd" clip-rule="evenodd" d="M52 35C54.4853 35 56.5 36.955 56.5 39.3665V62.6335C56.5 65.045 54.4853 67 52 67C49.5147 67 47.5 65.045 47.5 62.6335V39.3665C47.5 36.955 49.5147 35 52 35Z" fill="#235AE6"/>
<path fill-rule="evenodd" clip-rule="evenodd" d="M34.5 44C36.9853 44 39 45.955 39 48.3665V71.6335C39 74.045 36.9853 76 34.5 76C32.0147 76 30 74.045 30 71.6335V48.3665C30 45.955 32.0147 44 34.5 44Z" fill="#235AE6"/>
</svg>
